<svg xmlns="http://www.w3.org/2000/svg" xmlns:xlink="http://www.w3.org/1999/xlink" width="1080" zoomAndPan="magnify" viewBox="0 0 810 809.999993" height="1080" preserveAspectRatio="xMidYMid meet" version="1.2"><defs><clipPath id="25950ba3b8"><path d="M 0 0 L 810 0 L 810 809.25 L 0 809.25 Z M 0 0 "/></clipPath></defs><g id="58c7ab3b4d"><g clip-rule="nonzero" clip-path="url(#25950ba3b8)"><path style=" stroke:none;fill-rule:evenodd;fill:#0A162E;fill-opacity:1;" d="M 833.339844 1640.25 L 806.910156 1640.25 C 806.910156 1424.671875 726.285156 1236.195312 565.171875 1075.078125 C 404.054688 913.964844 215.710938 833.339844 0 833.339844 L 0 806.910156 C 215.710938 806.910156 404.054688 726.285156 565.171875 564.769531 C 726.285156 403.253906 806.910156 214.910156 806.910156 0 L 833.339844 0 C 833.339844 215.578125 913.964844 404.054688 1075.078125 565.171875 C 1236.195312 726.285156 1424.539062 806.910156 1640.25 806.910156 L 1640.25 833.339844 C 1424.671875 833.339844 1236.195312 913.964844 1075.078125 1075.078125 C 913.964844 1236.195312 833.339844 1424.539062 833.339844 1640.25 Z M 833.339844 1640.25 "/></g></g></svg>